<?xml version="1.0" encoding="utf-8"?>
<!-- Generator: Adobe Illustrator 24.2.0, SVG Export Plug-In . SVG Version: 6.00 Build 0)  -->
<svg version="1.1" id="Layer_1" xmlns="http://www.w3.org/2000/svg" xmlns:xlink="http://www.w3.org/1999/xlink" x="0px" y="0px"
	 viewBox="0 0 150.06 38.17" style="enable-background:new 0 0 150.06 38.17;" xml:space="preserve">
<style type="text/css">
	.st0{fill:#C72026;}
	.st1{fill:#0B040C;}
</style>
<g id="XMLID_730_">
	<path id="XMLID_741_" class="st0" d="M60.51,32.46l-2.95,2.92c-0.09,0-0.5-0.41-1.23-1.24c-0.39-0.43-0.77-0.87-1.15-1.31
		c-0.38-0.41-0.67-0.72-0.87-0.94c-0.39-0.42-0.77-0.87-1.13-1.34c-0.84-1.07-1.52-1.96-2.05-2.68c-0.32-0.45-0.65-0.91-0.97-1.37
		c-0.25-0.34-0.48-0.63-0.71-0.86l0.03,1.58c-0.55,0-0.99,0.01-1.31,0.02c-0.32,0.01-0.68,0.03-1.07,0.03
		c-0.32,0.65-0.96,1.81-1.91,3.46c-0.9,1.59-1.66,2.86-2.25,3.82h-4.66c0-0.03,0.52-0.97,1.56-2.83c1.85-3.3,2.82-5.02,2.89-5.16
		c1.04-1.85,1.57-2.77,1.58-2.77h4.15c-0.06-0.12-0.32-0.57-0.8-1.36c-0.47-0.78-0.75-1.27-0.84-1.47c0.1-0.09,0.37-0.26,0.81-0.5
		c0.44-0.24,0.8-0.5,1.07-0.75h-9.86c-0.02-0.57-0.03-1.2-0.04-1.88C38.8,17.13,38.8,16.53,38.8,16l21.3-0.06l0.03,3.75l-9.09,0.04
		c0.39,0.66,0.76,1.3,1.12,1.91c0.6,1.01,1.11,1.83,1.54,2.46c0.61,0.92,1.15,1.67,1.63,2.24c0.19,0.23,0.47,0.58,0.83,1.04
		c0.71,0.91,1.3,1.65,1.78,2.2c0.83,0.96,1.39,1.6,1.69,1.94C59.84,31.75,60.14,32.06,60.51,32.46z"/>
	<path id="XMLID_739_" class="st0" d="M84.03,34.5c-0.01,0.03-0.5,0.04-1.48,0.05c-0.98,0-1.96,0.01-2.95,0.02
		c-0.54-1.61-1.08-3.21-1.62-4.82c-0.75-2.23-1.45-4.27-2.1-6.14c-0.75-2.13-1.24-3.44-1.48-3.92c-0.05-0.08-0.13-0.14-0.26-0.17
		c-0.12-0.03-0.36-0.04-0.7-0.04c-0.1,0-0.65,0.01-1.63,0.03c-0.99,0.02-1.96,0.03-2.93,0.03V34.5h-6.5l-0.01-3.02l2.24-0.03
		l-0.06-11.98c-0.5,0-0.9,0.01-1.2,0.03c-0.3,0.02-0.47,0.03-0.48,0.03c-0.09,0-0.18,0-0.26,0c-0.11-0.03-0.2-0.05-0.26-0.06v-3.66
		h13.64c0.77,0,1.42,0.42,1.92,1.27c0.41,0.93,0.65,1.48,0.73,1.63h0.29v-2.9h4.16v3.72h-4.26L84.03,34.5z"/>
	<path id="XMLID_736_" class="st0" d="M90.78,14.22h-4.72c0-0.55,0.01-1.07,0.02-1.56c0.02-0.49,0.03-0.97,0.05-1.44v-0.17
		c0-0.39-0.02-0.74-0.07-1.07h4.72V14.22z M94.08,19.39c-0.03,0.03-0.21,0.05-0.55,0.06c-0.34,0.01-0.55,0.01-0.64,0.01
		c-0.51,0-0.9,0-1.18-0.01c-0.28,0-0.56-0.02-0.84-0.03c0,1.23,0,2.45,0.01,3.66c0,1.22,0.01,2.42,0.02,3.6
		c0.01,1.18,0.02,2.42,0.03,3.71c0,1.44,0.12,2.38,0.37,2.82c0.02,0.03,0.36,0.33,1.01,0.9c-0.36,0.52-0.65,0.94-0.86,1.24
		c-0.46,0.66-0.74,1.06-0.84,1.2c-0.21,0.29-0.56,0.78-1.05,1.45c-0.06,0-0.25-0.13-0.58-0.39c-0.46-0.36-0.89-0.8-1.27-1.33
		c-0.54-0.74-0.95-1.56-1.23-2.46c-0.18-0.49-0.29-1.08-0.34-1.76c-0.05-0.69-0.08-1.59-0.08-2.7V15.85h8.02V19.39z"/>
	<path id="XMLID_734_" class="st0" d="M124.5,34.48h-4.48c-0.35-0.98-0.78-2.12-1.28-3.42c-0.5-1.3-1.1-2.82-1.8-4.55
		c-0.18-0.47-0.69-1.83-1.51-4.07c-0.4-1.07-0.72-1.77-0.98-2.11c-0.32-0.41-0.77-0.61-1.36-0.61c-0.15,0-0.33-0.01-0.55-0.04
		c-0.22-0.03-0.41-0.04-0.58-0.04l5.26,14.9c-0.13,0-0.65-0.01-1.58-0.03c-0.92-0.02-1.86-0.03-2.81-0.03
		c-0.28-0.61-0.53-1.29-0.76-2.03c-0.19-0.61-0.37-1.13-0.53-1.56c-0.54-1.41-1.24-3.37-2.1-5.88c-0.71-2.07-1.2-3.41-1.48-4.02
		c-0.45-1-0.87-1.49-1.24-1.49h-4.18c0,1.85,0,3.57,0.01,5.14c0.01,1.57,0.02,3.14,0.03,4.72c0.01,1.57,0.02,3.28,0.02,5.14h-6.58
		L96,31.42c0.35,0,0.66,0,0.93,0s0.5,0,0.71,0c0.36-0.08,0.6-0.26,0.72-0.52c0.12-0.26,0.18-0.62,0.18-1.09
		c0-1.53-0.01-2.71-0.02-3.55c-0.01-0.83-0.03-1.87-0.05-3.11c-0.02-1.24-0.03-2.45-0.03-3.62c-0.53,0-1,0-1.43,0
		c-0.43,0-0.81,0-1.14,0l-0.03-3.57l12.23-0.03c0.4,0,0.74,0.08,1.04,0.25c0.6,0.34,1.44,1.1,2.52,2.28v-2.53
		c0.55,0,1.11,0.01,1.68,0.02c0.57,0.01,1.13,0.03,1.68,0.03c1.24,0,2.13,0.34,2.67,1.01c0.36,0.53,0.72,1.05,1.08,1.56V16h4.14
		v3.49c-0.2,0-0.63,0-1.29,0c-0.65,0-1.5,0-2.54,0c0.28,0.87,0.75,2.2,1.41,4c0.17,0.44,0.82,2.19,1.96,5.25
		C123.23,30.96,123.93,32.87,124.5,34.48z"/>
	<path id="XMLID_731_" class="st0" d="M149.5,34.45h-17.71c-0.77,0-1.48-0.12-2.15-0.36c-0.66-0.24-1.28-0.61-1.84-1.12
		c-0.5-0.43-0.83-0.91-0.98-1.44c-0.11-0.36-0.17-0.89-0.17-1.6v-0.8v-7.73c0.39,0,2.14,0,5.25-0.01c3.12-0.01,6.36-0.02,9.75-0.03
		c3.38-0.01,6.06-0.02,8.04-0.02v3.5l-18.17-0.03c0,0.63-0.02,1.26-0.07,1.89c-0.05,0.64-0.08,1.16-0.11,1.56
		c0,1.13,0.11,1.86,0.32,2.21c0.26,0.43,0.68,0.65,1.27,0.65h12.01c0.4,0,0.7-0.18,0.89-0.55c0.2-0.37,0.3-0.89,0.3-1.56h3.36V34.45
		z M149.7,19.28l-22.94-0.03v-3.46l9.16-0.03h4.74h9.04c0,0.23,0,0.66,0,1.3C149.7,17.7,149.7,18.44,149.7,19.28z"/>
</g>
<g>
	<path d="M106.37,7.17c0.06,2.46-0.99,4.38-3.16,5.74l-0.83-0.92c1.91-1.04,2.87-2.5,2.87-4.38V5.52h1.02
		c0.29,0.03,0.32,0.15,0.1,0.34v1.26c1.17-0.88,2.06-1.73,2.67-2.58l-7.93,0.29l-0.1-1.12l8.85-0.24l0.34-0.1l0.73,0.88
		c0.1,0.13,0.02,0.18-0.24,0.15c-0.97,1.26-2.14,2.45-3.5,3.55L106.37,7.17z"/>
	<path d="M113.45,9.7h10.07v1.07h-10.07V9.7z M114.66,4.4h7.15v1.07h-7.15V4.4z"/>
	<path d="M126.02,11.31c1.98-1.07,3.4-2.29,4.28-3.65c-0.91-0.55-1.7-0.97-2.38-1.26l0.58-1.07c0.71,0.32,1.52,0.75,2.43,1.26
		c0.45-0.94,0.84-2.2,1.17-3.79l1.17,0.39c0.23,0.07,0.21,0.16-0.05,0.29c-0.42,1.62-0.86,2.87-1.31,3.74
		c0.78,0.52,1.41,0.97,1.9,1.36l-0.63,1.12c-0.65-0.55-1.26-1.02-1.85-1.41c-1.2,1.62-2.63,2.93-4.28,3.94L126.02,11.31z"/>
	<path d="M138.4,3.77c0.36-0.45,0.65-0.91,0.88-1.36l0.73,0.44c0.26,0.19,0.23,0.31-0.1,0.34c-0.19,0.39-0.54,0.88-1.02,1.46
		c0.45,0.78,0.68,2.3,0.68,4.57c0,2.66-0.54,3.99-1.6,3.99h-0.83l-0.1-0.92h0.68c0.58,0,0.88-1.13,0.88-3.4V7.95
		c-0.49,1.01-1.17,1.86-2.04,2.58l-0.44-1.07c0.97-0.84,1.73-1.81,2.29-2.92c-0.03-0.45-0.11-0.83-0.24-1.12
		c-0.45,0.49-0.94,0.91-1.46,1.26l-0.53-0.92c0.58-0.36,1.09-0.76,1.51-1.22c-0.32-0.49-0.71-1-1.17-1.56l0.78-0.58
		C137.77,2.96,138.14,3.41,138.4,3.77z M145.94,9.02l0.63,0.49c0.19,0.19,0.13,0.29-0.19,0.29c-0.39,0.71-0.83,1.3-1.31,1.75
		c0.62,0.36,1.43,0.57,2.43,0.63l-0.24,0.88c-1.23-0.16-2.16-0.49-2.77-0.97c-0.71,0.55-1.51,0.92-2.38,1.12l-0.44-0.68
		c0.91-0.23,1.62-0.54,2.14-0.92c-0.45-0.39-0.83-0.91-1.12-1.56c-0.45,1.33-1.36,2.4-2.72,3.21l-0.54-0.83
		c1.56-0.71,2.46-2.07,2.72-4.08h-2.04V7.56h2.14l0.1-0.97h-1.51V5.81h5.74v0.78h-3.36l-0.1,0.97h4.23v0.78h-4.33l-0.15,0.88h2.82
		L145.94,9.02z M140.44,6.15l-0.68-0.58c0.78-0.84,1.28-1.91,1.51-3.21l0.83,0.19c1.39-0.06,2.8-0.16,4.23-0.29l0.54,0.88
		c0.13,0.23-0.03,0.24-0.49,0.05c-1.36,0.1-2.85,0.16-4.47,0.19C141.61,4.52,141.12,5.44,140.44,6.15z M143.17,5.38
		c-0.03-0.49-0.15-1-0.34-1.56l0.88-0.05c0.23,0.49,0.37,0.99,0.44,1.51L143.17,5.38z M143.46,10c0.23,0.42,0.53,0.78,0.92,1.07
		c0.36-0.26,0.65-0.62,0.88-1.07H143.46z M146.23,5.42c-0.32-0.62-0.71-1.23-1.17-1.85l0.97-0.15c0.42,0.52,0.81,1.09,1.17,1.7
		L146.23,5.42z"/>
</g>
<g id="XMLID_707_">
	<path id="XMLID_726_" d="M21.81,26.17c-2.88-0.51-5.48-0.25-7.51,0.2c-0.37,0.08-0.72,0.17-1.05,0.26
		c0.02,0.18,0.05,0.36,0.09,0.53c0.69,3.09,3.75,5.03,6.84,4.34c2.47-0.55,4.2-2.62,4.45-5.01C23.8,26.46,22.86,26.36,21.81,26.17z
		 M20.06,30.98c-1.91,0.43-3.81-0.26-5.02-1.64c0.34-0.25,0.72-0.45,1.17-0.56c1.12-0.28,1.6,1,2.65,0.24
		c1.26-0.92,2.78-0.48,3.98,0.3C22.13,30.14,21.17,30.74,20.06,30.98z"/>
	<path id="XMLID_723_" class="st1" d="M25.48,16.81c-1.1,0-2,0.89-2,2c0,1.1,0.89,1.99,2,1.99c1.1,0,2-0.89,2-1.99
		C27.48,17.7,26.59,16.81,25.48,16.81z M25.19,18.93c-0.41,0-0.75-0.33-0.75-0.75c0-0.41,0.33-0.75,0.75-0.75
		c0.41,0,0.75,0.33,0.75,0.75C25.94,18.6,25.61,18.93,25.19,18.93z"/>
	<path id="XMLID_720_" class="st1" d="M10.5,18.8c0,1.04,0.84,1.88,1.88,1.88c1.04,0,1.88-0.84,1.88-1.88
		c0-1.04-0.84-1.88-1.88-1.88C11.35,16.92,10.5,17.76,10.5,18.8z M11.95,18.22c0-0.39,0.31-0.7,0.7-0.7c0.39,0,0.7,0.31,0.7,0.7
		c0,0.39-0.32,0.7-0.7,0.7C12.27,18.93,11.95,18.61,11.95,18.22z"/>
	<path id="XMLID_716_" d="M34.36,16.2c-0.01,0-0.01,0-0.02,0c-0.01,0.05-0.01,0.1-0.03,0.15c-0.11,0.46-0.45,0.73-0.89,0.73
		c-0.07,0-0.14-0.01-0.21-0.01c-0.04,0-0.08-0.01-0.13-0.01c-0.05,0-0.2,0-0.47,0.41l-0.02,0.04c-0.08,0.15-0.16,0.36-0.21,0.57
		c-0.3,1.22-0.67,2.48-1.1,3.74c-0.35,1.02-0.95,1.83-1.83,2.47c-0.59,0.43-1.21,0.76-1.87,0.99c0.5,0.67,0.79,1.4,0.79,2.17
		c0,3.01-4.22,5.44-9.44,5.44c-5.21,0-9.44-2.44-9.44-5.44c0-0.77,0.28-1.51,0.79-2.17C9.62,25.04,9,24.71,8.41,24.28
		c-0.88-0.64-1.48-1.45-1.83-2.47c-0.43-1.26-0.8-2.51-1.1-3.74c-0.05-0.21-0.13-0.41-0.22-0.57l-0.02-0.03
		c-0.27-0.41-0.42-0.41-0.47-0.41c-0.04,0-0.08,0.01-0.13,0.01c-0.08,0.01-0.14,0.01-0.21,0.01c-0.45,0-0.78-0.28-0.9-0.74
		c-0.01-0.05-0.02-0.1-0.03-0.14c-0.01,0-0.01,0-0.02,0c-1.9,0-3.45,2.17-3.45,4.85c0,2.68,2.14,5.33,4.77,5.92
		c0.11,0.03,0.22,0.04,0.33,0.06c2.29,5.34,7.6,9.08,13.77,9.08c6.18,0,11.48-3.74,13.77-9.08c0.11-0.02,0.22-0.03,0.33-0.06
		c2.63-0.59,4.77-3.24,4.77-5.92C37.81,18.37,36.26,16.2,34.36,16.2z M2.16,21.32c-0.13-1.95,0.82-3.47,2.12-3.42
		c0.01,0,0.01,0,0.02,0c-0.23,1.04-0.35,2.11-0.35,3.21c0,1.38,0.19,2.72,0.54,3.99C3.25,24.45,2.27,22.92,2.16,21.32z M35.7,21.32
		c-0.11,1.6-1.08,3.12-2.33,3.8c0.35-1.27,0.54-2.61,0.54-3.99c0-1.1-0.12-2.18-0.35-3.22c0.01,0,0.01,0,0.02,0
		C34.88,17.85,35.83,19.38,35.7,21.32z"/>
	<path id="XMLID_715_" d="M6.63,13.39c0.42-0.09,0.84-0.18,1.26-0.26l0.09-0.02c0.72-0.14,1.47-0.28,2.22-0.32
		c0.28-0.02,0.56-0.02,0.84-0.02c0.01,0,0.02,0,0.02,0c0.96-0.51,2.05-0.8,3.22-0.8c1.8,0,3.43,0.69,4.65,1.82
		c1.22-1.13,2.86-1.82,4.65-1.82c1.16,0,2.26,0.29,3.22,0.8c0.01,0,0.02,0,0.02,0c0.28,0,0.56,0.01,0.84,0.02
		c0.76,0.04,1.5,0.18,2.22,0.32l0.09,0.02c0.42,0.08,0.84,0.17,1.25,0.26c0.2,0.04,0.4,0.09,0.61,0.13
		c-0.19-0.32-0.38-0.63-0.59-0.94l0,0C27.01,6.3,17.35,2.37,17.35,2.37c0.66,1.69,1.24,2.16,1.24,2.16
		c-5.68-0.26-5.44-3.03-5.44-3.03c-1.54,2.97-0.71,4.74,0.25,5.7c-0.01,0-0.01,0.01-0.02,0.01c-2.15,0.81-3.96,2.07-5.33,3.62
		c-0.77,0.82-1.45,1.72-2.02,2.7C6.23,13.48,6.43,13.44,6.63,13.39z"/>
	<path id="XMLID_708_" class="st0" d="M34.17,14.68c-0.07-0.22-0.31-0.3-0.41-0.33l0,0c-0.01,0-0.01,0-0.02,0c0,0-0.02,0-0.02,0
		c-0.38-0.07-0.76-0.14-1.16-0.22c-0.47-0.09-0.95-0.19-1.42-0.29c-0.41-0.09-0.84-0.18-1.26-0.26l-0.08-0.02
		c-0.71-0.13-1.44-0.27-2.17-0.31c-0.27-0.01-0.54-0.02-0.82-0.02c-1.47,0-3.02,0.21-4.59,0.62c-0.29,0.07-0.57,0.16-0.85,0.24
		c-0.81,0.24-1.58,0.47-2.41,0.47h-0.1c-0.83,0-1.6-0.23-2.41-0.47c-0.27-0.08-0.56-0.16-0.85-0.24c-1.58-0.41-3.12-0.62-4.59-0.62
		c-0.27,0-0.55,0.01-0.82,0.02c-0.73,0.04-1.46,0.18-2.17,0.31l-0.09,0.02c-0.42,0.08-0.84,0.17-1.25,0.26
		c-0.47,0.1-0.95,0.2-1.43,0.29c-0.39,0.08-0.77,0.15-1.15,0.22c-0.01,0-0.03,0-0.03,0c-0.01,0-0.02,0-0.03,0.01
		c-0.11,0.03-0.33,0.11-0.4,0.33c-0.05,0.16,0.01,0.34,0.19,0.53c0,0,0,0,0.01,0.01c0.06,0.06,0.13,0.12,0.21,0.18
		c-0.12,0.17-0.21,0.44-0.11,0.85c0.06,0.26,0.22,0.4,0.46,0.4c0.05,0,0.11-0.01,0.16-0.01c0.06-0.01,0.12-0.01,0.18-0.01
		c0.2,0,0.48,0.07,0.84,0.61c0.01,0.01,0.01,0.02,0.02,0.03l0.01,0.01c0.11,0.2,0.21,0.45,0.27,0.7c0.29,1.21,0.66,2.46,1.09,3.7
		c0.32,0.93,0.86,1.67,1.67,2.25c1.04,0.76,2.19,1.19,3.51,1.3c0.23,0.02,0.43,0.03,0.62,0.03c0.65,0,1.21-0.11,1.71-0.34
		c1.18-0.55,1.92-1.7,2.43-2.65c0.5-0.91,0.86-1.96,1.17-3.41c0.06-0.28,0.14-0.5,0.23-0.66c0.08-0.13,0.2-0.23,0.27-0.24
		c0.09-0.01,0.18-0.02,0.26-0.02c0.02,0,0.03,0,0.05,0c0,0,0.04,0,0.06,0c0.09,0,0.18,0.01,0.26,0.02c0.07,0.01,0.19,0.11,0.27,0.24
		c0.1,0.16,0.17,0.39,0.23,0.66c0.31,1.45,0.67,2.5,1.17,3.41c0.51,0.94,1.25,2.09,2.43,2.65c0.49,0.23,1.05,0.34,1.71,0.34
		c0.19,0,0.4-0.01,0.62-0.03c1.32-0.11,2.46-0.53,3.51-1.3c0.8-0.59,1.35-1.32,1.67-2.25c0.43-1.25,0.79-2.49,1.09-3.7
		c0.06-0.25,0.16-0.5,0.27-0.7c0.01-0.02,0.02-0.03,0.03-0.05c0.36-0.54,0.64-0.61,0.84-0.61c0.06,0,0.12,0.01,0.18,0.01
		c0.06,0.01,0.11,0.01,0.16,0.01c0.24,0,0.4-0.13,0.46-0.39c0.1-0.41,0.01-0.68-0.11-0.85c0.09-0.06,0.16-0.12,0.22-0.19
		C34.16,15.02,34.22,14.84,34.17,14.68z M5.97,15.72c-0.04,0-0.09,0-0.13,0c-0.39-0.02-0.71-0.14-0.71-0.25
		c0-0.11,0.26-0.18,0.6-0.18c0.04,0,0.07,0,0.11,0c0.39,0.02,0.71,0.13,0.71,0.25C6.55,15.65,6.3,15.72,5.97,15.72z M16.94,17.94
		c-0.28,1.87-0.86,3.4-1.75,4.55c-0.63,0.82-1.49,1.28-2.56,1.36c-0.11,0.01-0.21,0.01-0.32,0.01c-0.76,0-1.54-0.2-2.38-0.6
		c-0.87-0.42-1.51-1.17-1.85-2.17c-0.55-1.6-0.79-2.98-0.76-4.33c0.02-0.76,0.32-1.27,0.91-1.51c0.51-0.21,1.04-0.36,1.55-0.44
		c0.44-0.07,0.74-0.09,1.18-0.09c0.18,0,0.39,0,0.64,0.01c0.18,0,0.37,0.01,0.6,0.01l0.14,0.01c1.18,0.07,1.89,0.12,3.21,0.62
		c0.13,0.06,0.26,0.15,0.39,0.24l0.01,0.01C16.76,16.13,17.1,16.92,16.94,17.94z M19.68,16.71c-0.17-0.02-0.43-0.03-0.74-0.03
		c0,0,0,0,0,0s0,0,0,0c-0.35,0-0.58,0.01-0.75,0.03c-0.07-0.47-0.32-0.88-0.58-1.19c0.62,0.14,1.13,0.18,1.31,0.19
		c0,0,0.01,0,0.01,0c0,0,0.01,0,0.01,0c0.13-0.01,0.66-0.05,1.31-0.19C20,15.83,19.74,16.24,19.68,16.71z M29.79,21.08
		c-0.34,1-0.99,1.75-1.85,2.17c-0.83,0.4-1.61,0.6-2.37,0.6c-0.11,0-0.22,0-0.32-0.01c-1.07-0.08-1.93-0.54-2.56-1.36
		c-0.88-1.15-1.47-2.68-1.75-4.55c-0.15-1.02,0.18-1.8,0.99-2.34c0.14-0.09,0.27-0.18,0.4-0.24c1.32-0.5,2.03-0.55,3.21-0.62
		l0.14-0.01c0.23,0,0.42-0.01,0.6-0.01c0.26,0,0.46-0.01,0.65-0.01c0.44,0,0.74,0.02,1.18,0.09c0.51,0.08,1.05,0.23,1.55,0.44
		c0.58,0.24,0.89,0.75,0.91,1.51C30.58,18.11,30.34,19.48,29.79,21.08z M32.03,15.72c-0.05,0-0.09,0-0.13,0
		c-0.33,0-0.58-0.08-0.58-0.18c0-0.12,0.32-0.23,0.71-0.25c0.04,0,0.07,0,0.11,0c0.34,0,0.6,0.07,0.6,0.18
		C32.74,15.58,32.42,15.7,32.03,15.72z"/>
</g>
</svg>
